Coordinates
version=1
nRows=5
nColumns=46
inDegrees=yes

Units are S.I. units (second, meters, Newtons, ...)
Angles are in degrees.

endheader
time	pelvis_tilt	pelvis_list	pelvis_rotation	pelvis_tx	pelvis_ty	pelvis_tz	bb_angle	bb_tx	bb_ty	bb_tz	hip_flexion_r	hip_adduction_r	hip_rotation_r	knee_angle_r	knee_angle_r_beta	ankle_angle_r	subtalar_angle_r	mtp_angle_r	crank_angle_r	hip_flexion_l	hip_adduction_l	hip_rotation_l	knee_angle_l	knee_angle_l_beta	ankle_angle_l	subtalar_angle_l	mtp_angle_l	crank_angle_l	lumbar_extension	lumbar_bending	lumbar_rotation	arm_flex_r	arm_add_r	arm_rot_r	elbow_flex_r	pro_sup_r	wrist_flex_r	wrist_dev_r	arm_flex_l	arm_add_l	arm_rot_l	elbow_flex_l	pro_sup_l	wrist_flex_l	wrist_dev_l
      7.50500000	    -19.61229254	      4.75479597	      6.54909700	      0.37377357	      1.13509530	     -0.26295798	      0.00000000	      0.50000000	      0.00000000	      0.25000000	     26.27424657	    -13.86944762	    -12.88115902	     32.94258363	      0.57495655	    -31.59457311	     -4.31799309	      0.00000000	      0.00000000	     79.63100341	      3.98659664	      2.15164696	    110.52485928	      1.92902270	      2.29054308	     -4.71731217	      0.00000000	      0.00000000	    -59.83273177	     -1.80171038	     -9.63576201	     49.68800244	    -17.26054129	     20.71562527	     64.54359414	     50.89669404	      0.00000000	      0.00000000	     51.28197872	    -20.33253635	     28.13736850	     72.75241521	     50.21470665	      0.00000000	      0.00000000
      7.51000000	    -19.57022941	      4.55715237	      6.55386041	      0.37318221	      1.13699152	     -0.26347855	      0.00000000	      0.50000000	      0.00000000	      0.25000000	     26.69253371	    -13.68237121	    -12.35904940	     34.27297844	      0.59817632	    -33.07461461	     -5.53862965	      0.00000000	      0.00000000	     79.35519706	      4.17071918	      2.34718001	    109.27328986	      1.90717869	      3.43970579	     -4.63047849	      0.00000000	      0.00000000	    -60.21758411	     -1.71882399	     -9.68129937	     50.08247474	    -17.10366126	     20.64835651	     64.46414804	     50.89202777	      0.00000000	      0.00000000	     51.40657406	    -20.49854247	     27.96100845	     73.38063744	     50.29335531	      0.00000000	      0.00000000
      7.51500000	    -19.53798138	      4.29427094	      6.52107265	      0.37257403	      1.13866456	     -0.26373920	      0.00000000	      0.50000000	      0.00000000	      0.25000000	     27.21412555	    -13.31872198	    -11.55481615	     35.76978367	      0.62430050	    -34.30772899	     -6.81259852	      0.00000000	      0.00000000	     78.93965505	      4.30985655	      2.69669132	    107.92793568	      1.88369783	      4.88516707	     -4.28295434	      0.00000000	      0.00000000	    -60.68640918	     -1.53562919	     -9.89795631	     50.69343615	    -16.58316112	     20.72009650	     64.19526824	     50.49985139	      0.00000000	      0.00000000	     51.15012765	    -21.26150324	     27.73452078	     74.79108482	     50.20995944	      0.00000000	      0.00000000
      7.52000000	    -19.66180158	      4.17321232	      6.45413386	      0.37199437	      1.13998115	     -0.26393112	      0.00000000	      0.50000000	      0.00000000	      0.25000000	     28.10583268	    -13.14129073	    -10.77854818	     37.66565414	      0.65738968	    -35.34672804	     -8.28498036	      0.00000000	      0.00000000	     78.47802481	      4.46819429	      2.83432656	    106.31870299	      1.85561142	      6.11856647	     -4.55213896	      0.00000000	      0.00000000	    -60.95311776	     -1.62435330	     -9.89865523	     50.61199503	    -16.39108621	     19.81556700	     64.93411115	     49.99322331	      0.00000000	      0.00000000	     50.90032365	    -20.78256906	     26.46611357	     75.46670122	     49.81365136	      0.00000000	      0.00000000
      7.52500000	    -19.57348535	      3.92130866	      6.35313617	      0.37140616	      1.14141352	     -0.26397719	      0.00000000	      0.50000000	      0.00000000	      0.25000000	     28.76395293	    -12.67606358	     -9.80761135	     39.57018096	      0.69062994	    -36.13393351	     -9.75816983	      0.00000000	      0.00000000	     77.68200195	      4.48978153	      3.08025467	    104.57555503	      1.82518775	      7.47025338	     -4.74299716	      0.00000000	      0.00000000	    -61.39271945	     -1.53760250	     -9.90362304	     50.85520388	    -16.17339110	     19.59721471	     65.23056180	     49.51265176	      0.00000000	      0.00000000	     50.81387738	    -21.00190276	     26.04245124	     76.24713303	     49.52118524	      0.00000000	      0.00000000
